<?xml version="1.0" standalone="no"?>
<!DOCTYPE svg PUBLIC "-//W3C//DTD SVG 20010904//EN"
 "http://www.w3.org/TR/2001/REC-SVG-20010904/DTD/svg10.dtd">
<svg version="1.0" xmlns="http://www.w3.org/2000/svg"
 width="170.000000pt" height="130.000000pt" viewBox="0 0 364.000000 138.000000"
 preserveAspectRatio="xMidYMid meet">

<g transform="translate(0.000000,138.000000) scale(0.100000,-0.100000)"
fill="#000000" stroke="none">
<path d="M2490 979 c-36 -11 -90 -45 -90 -57 0 -4 44 -7 98 -8 117 0 182 -15
287 -63 88 -41 177 -116 251 -212 39 -50 94 -146 94 -163 0 -3 -33 12 -72 34
-51 28 -85 40 -114 40 -43 0 -104 -17 -104 -29 0 -4 29 -24 65 -44 64 -37 212
-156 269 -216 32 -34 57 -38 119 -20 24 6 41 19 47 32 4 12 16 80 25 152 9 72
18 140 21 153 4 20 0 22 -31 22 -49 0 -72 -14 -80 -50 -4 -16 -10 -30 -14 -30
-3 0 -24 35 -45 78 -101 204 -227 312 -431 366 -75 21 -248 29 -295 15z"/>
<path d="M784 868 c-4 -6 0 -16 9 -23 14 -10 14 -17 5 -48 -13 -42 -5 -58 18
-36 21 21 30 85 14 104 -15 18 -36 20 -46 3z"/>
<path d="M667 836 c-13 -29 -24 -36 -59 -43 -29 -6 -44 -14 -46 -26 -3 -16 1
-17 32 -11 20 3 36 2 36 -2 0 -24 -60 -157 -80 -179 -42 -45 -126 -97 -151
-93 -35 5 -29 23 18 57 61 44 71 101 18 101 -17 0 -37 -16 -67 -52 -101 -123
-149 -154 -162 -105 -10 39 -7 45 53 112 96 106 145 223 106 255 -64 53 -218
-254 -190 -379 13 -61 68 -60 132 1 30 29 31 29 38 9 17 -53 79 -47 161 16
l46 34 -7 -40 c-8 -49 0 -78 25 -86 28 -9 68 16 131 81 64 67 84 100 69 109
-6 4 -44 -30 -86 -74 -42 -45 -83 -81 -91 -81 -27 0 -10 94 39 215 l43 110 49
5 c63 6 75 30 16 30 l-41 0 7 35 c9 47 -16 48 -39 1z m-347 -101 c-12 -24 -39
-63 -61 -87 -33 -37 -38 -39 -29 -16 14 40 60 129 84 163 20 29 21 29 24 7 2
-12 -6 -42 -18 -67z m120 -128 c0 -2 -12 -14 -27 -28 -24 -22 -24 -13 0 19 8
11 27 17 27 9z"/>
<path d="M2632 836 c-16 -27 -29 -36 -64 -43 -56 -11 -61 -40 -6 -35 l36 3
-30 -78 c-17 -43 -35 -81 -42 -85 -6 -3 -39 -29 -74 -57 -60 -49 -106 -70
-119 -57 -11 11 16 81 47 124 21 30 37 42 54 42 14 0 28 5 32 11 10 17 -12 32
-39 25 -25 -6 -35 -15 -112 -103 -45 -52 -120 -103 -151 -103 -31 0 -42 21
-18 34 42 24 85 76 82 98 -6 44 -44 35 -108 -26 -32 -31 -61 -56 -65 -56 -3 0
-4 28 -3 62 3 54 0 63 -15 66 -22 4 -46 -16 -98 -81 -42 -52 -48 -45 -24 23
19 53 19 70 1 70 -8 0 -17 -14 -21 -31 -7 -30 -69 -109 -86 -109 -4 0 -6 29
-2 65 5 57 4 65 -11 65 -29 0 -51 -17 -96 -75 -23 -30 -44 -54 -46 -52 -2 1 6
31 17 66 10 35 17 66 15 69 -12 11 -35 -9 -41 -36 -4 -20 -18 -36 -44 -50 -21
-12 -43 -22 -47 -22 -5 0 -9 19 -9 41 0 28 -5 45 -17 52 -14 9 -28 1 -80 -49
-71 -68 -149 -124 -172 -124 -36 0 -5 101 46 147 12 11 32 23 43 25 27 4 26
32 -1 36 -44 6 -120 -89 -138 -174 -5 -22 -2 -37 12 -54 17 -21 21 -22 55 -11
21 7 60 30 87 52 27 21 51 39 54 39 3 0 6 -12 8 -27 4 -35 32 -42 61 -15 12
10 36 24 52 30 17 5 38 13 48 17 14 6 17 1 17 -29 0 -58 30 -47 96 34 31 39
58 70 59 70 2 0 1 -24 -2 -53 -7 -68 10 -86 56 -62 28 14 31 14 31 0 0 -9 8
-19 17 -22 12 -5 34 12 81 63 l64 69 -7 -46 c-4 -36 -2 -50 10 -63 20 -20 25
-20 52 -1 19 14 21 13 26 -15 9 -44 40 -56 93 -35 25 9 58 28 74 42 l30 25 0
-25 c0 -27 23 -57 43 -57 20 0 89 40 136 78 33 27 42 31 38 16 -18 -61 -18
-90 1 -114 18 -22 22 -23 50 -11 37 15 172 154 172 176 0 26 -13 17 -91 -65
-83 -87 -109 -99 -109 -49 0 32 42 167 79 251 19 45 21 47 67 50 61 4 73 28
14 28 -44 0 -46 3 -25 53 13 32 -22 18 -43 -17z m-1112 -235 c0 -11 -4 -23
-10 -26 -6 -4 -10 5 -10 19 0 14 5 26 10 26 6 0 10 -9 10 -19z m668 -11 c-14
-22 -44 -38 -32 -17 14 23 27 37 35 37 5 0 4 -9 -3 -20z m-698 -61 c0 -5 -4
-9 -10 -9 -5 0 -10 7 -10 16 0 8 5 12 10 9 6 -3 10 -10 10 -16z"/>
<path d="M916 640 c-38 -43 -45 -78 -25 -123 9 -21 7 -30 -12 -56 -18 -25 -21
-36 -13 -49 28 -44 94 -7 94 53 0 30 6 37 57 69 31 20 61 37 67 40 8 2 7 7 -1
16 -9 10 -25 5 -78 -25 -36 -20 -73 -34 -81 -31 -26 10 -16 53 21 89 19 19 35
39 35 46 0 23 -29 10 -64 -29z m4 -206 c-18 -21 -24 -10 -9 18 8 14 14 18 17
10 2 -7 -2 -19 -8 -28z"/>
</g>
</svg>
